<svg version="1.1" id="Layer_1" xmlns="http://www.w3.org/2000/svg" xmlns:xlink="http://www.w3.org/1999/xlink" x="0px" y="0px"
	 width="100%" viewBox="0 0 457 394" enable-background="new 0 0 457 394" xml:space="preserve">
<path fill="#222968" opacity="1.000000" stroke="none" 
	d="
M10.000000,395.000000 
	C7.001086,395.000000 4.002172,395.000000 1.002443,395.000000 
	C1.001629,263.715271 1.001629,132.430573 1.001629,1.072927 
	C153.229553,1.072927 305.459137,1.072927 457.844360,1.072927 
	C457.844360,132.333191 457.844360,263.666565 457.844360,395.000000 
	C454.288818,395.000000 450.623596,395.000000 446.479187,394.531342 
	C446.367554,368.301514 445.246124,342.781555 437.885742,317.750305 
	C432.653381,299.955902 425.218170,283.140411 416.168060,267.201080 
	C407.328949,251.633286 396.423859,237.282806 383.361664,224.772720 
	C381.872711,223.346680 380.982910,221.295059 380.043091,219.289001 
	C388.358643,215.348770 392.973572,208.952164 393.092865,200.186157 
	C393.215393,191.183838 393.079163,182.036240 391.600830,173.195587 
	C390.246277,165.095139 380.708832,159.453079 369.984619,159.116394 
	C360.334015,158.813416 350.668335,159.024872 341.010803,158.896393 
	C332.590393,158.784378 330.565002,154.496521 331.348236,145.972351 
	C331.812683,140.917557 334.980988,138.524384 340.042542,138.539139 
	C347.203705,138.560028 354.365051,138.521484 361.526306,138.516602 
	C369.317963,138.511276 377.109619,138.515396 384.941589,138.515396 
	C384.941589,131.424927 384.941589,124.880600 384.941589,118.456398 
	C366.111298,118.456398 347.650970,118.386986 329.192200,118.527313 
	C326.245697,118.549713 323.059357,118.972359 320.425598,120.176308 
	C317.057556,121.715919 313.518616,123.698929 311.143433,126.436615 
	C304.622162,133.953003 305.319641,143.349487 305.049164,152.595764 
	C304.794006,161.319214 307.567902,168.534546 312.764893,175.104889 
	C310.379547,174.863541 308.257446,174.684982 306.262451,174.084259 
	C298.661224,171.795380 291.101013,169.370300 283.436066,166.535461 
	C283.346649,157.001495 283.346649,147.928146 283.346649,138.333832 
	C288.047089,138.333832 292.120605,138.333832 296.273743,138.333832 
	C296.273743,131.364090 296.273743,124.933037 296.273743,118.351288 
	C278.842285,118.351288 261.657227,118.351288 244.386139,118.351288 
	C244.386139,125.346672 244.386139,132.052383 244.386139,139.189575 
	C248.779663,139.189575 252.859070,139.189575 256.943176,139.189575 
	C256.943176,146.750885 256.943176,153.874710 256.481873,160.999023 
	C245.807495,160.329788 235.594421,159.660065 225.082031,158.652420 
	C210.566864,158.314484 196.351044,158.314484 182.270004,158.314484 
	C182.270004,151.200256 182.270004,145.094498 182.270004,138.404633 
	C200.576508,138.404633 218.627579,138.404633 236.717728,138.404633 
	C236.717728,131.373444 236.717728,124.938316 236.717728,118.370697 
	C209.812149,118.370697 183.124313,118.370697 155.880615,118.370697 
	C155.880615,136.780685 155.880615,154.888870 155.480011,172.998749 
	C153.771240,173.167023 152.283508,172.985199 151.182129,173.552917 
	C136.626923,181.055801 122.092575,188.601761 107.668625,196.352112 
	C106.367722,197.051117 105.867058,199.239441 104.550415,200.832733 
	C102.773735,200.950409 101.441422,200.987915 100.109062,200.989914 
	C90.735115,201.004013 89.180054,199.426361 89.177490,189.902267 
	C89.174164,177.572281 89.149078,165.242203 89.194267,152.912384 
	C89.203995,150.258194 89.343506,147.589600 89.654678,144.954971 
	C90.099091,141.192093 92.125023,138.901016 96.140266,138.857162 
	C107.294228,138.735291 118.448219,138.613708 129.602448,138.521423 
	C134.394577,138.481781 139.187317,138.514801 144.178558,138.514801 
	C144.178558,131.407242 144.178558,124.852272 144.178558,118.208771 
	C125.688698,118.208771 107.536491,118.179054 89.384636,118.245728 
	C87.070763,118.254234 84.720665,118.588242 82.452217,119.074234 
	C70.501175,121.634583 63.945141,128.502121 63.447948,142.120026 
	C62.755569,161.083969 63.264801,180.092224 63.281521,199.081482 
	C63.289688,208.356781 67.994133,215.713242 75.978951,219.424164 
	C74.795357,221.532990 73.886383,223.542511 72.424759,224.996460 
	C56.831364,240.507935 43.964008,257.966614 34.590160,277.896179 
	C30.133915,287.370544 25.229677,296.738434 21.918112,306.620300 
	C17.862423,318.722656 13.885762,331.147217 12.371120,343.732880 
	C10.332593,360.671692 10.677866,377.897430 10.000000,395.000000 
M293.476501,86.734665 
	C296.575317,86.734665 299.674133,86.734665 303.093872,86.734665 
	C303.093872,90.132149 303.093872,92.892456 303.093872,95.680450 
	C306.165161,95.680450 308.874847,95.680450 312.007172,95.680450 
	C312.007172,92.591217 312.007172,89.842102 312.007172,87.079453 
	C318.494629,87.079453 324.541443,87.079453 331.044464,87.079453 
	C331.044464,94.830032 331.044464,102.244278 331.044464,109.678848 
	C333.921722,109.678848 336.329285,109.678848 338.808441,109.678848 
	C338.808441,99.166389 338.808441,88.932411 338.808441,78.225533 
	C329.785004,78.225533 321.039856,78.225533 311.723083,78.225533 
	C311.723083,68.875954 311.723083,59.985390 311.723083,51.243820 
	C255.912201,51.243820 200.688492,51.243820 145.041931,51.243820 
	C145.041931,60.332615 145.041931,69.087288 145.041931,78.308540 
	C135.882553,78.308540 127.134491,78.308540 118.310448,78.308540 
	C118.310448,89.143280 118.310448,99.496284 118.310448,109.573570 
	C121.135841,109.573570 123.544121,109.573570 126.375420,109.573570 
	C126.375420,101.775429 126.375420,94.354462 126.375420,87.142097 
	C132.889114,87.142097 138.955246,87.142097 145.341431,87.142097 
	C145.341431,90.313156 145.341431,93.075623 145.341431,95.825714 
	C148.254959,95.825714 150.818726,95.825714 153.763458,95.825714 
	C153.763458,92.685242 153.763458,89.919952 153.763458,86.734657 
	C200.263535,86.734657 246.373962,86.734657 293.476501,86.734665 
z"/>
<path fill="#272D6B" opacity="1.000000" stroke="none" 
	d="
M225.381348,158.990356 
	C235.594421,159.660065 245.807495,160.329788 256.579468,161.458862 
	C257.138397,174.341156 257.138397,186.764069 257.138397,199.705048 
	C252.610306,199.705048 248.542313,199.705048 244.431427,199.705048 
	C244.431427,206.765320 244.431427,213.295837 244.431427,219.795929 
	C261.868378,219.795929 278.944336,219.795929 296.115173,219.795929 
	C296.115173,213.064072 296.115173,206.543808 296.115173,199.440247 
	C291.674866,199.440247 287.623779,199.440247 283.525482,199.440247 
	C283.525482,188.231781 283.525482,177.613937 283.525482,166.996094 
	C291.101013,169.370300 298.661224,171.795380 306.262451,174.084259 
	C308.257446,174.684982 310.379547,174.863541 313.108276,175.185883 
	C315.194305,175.960220 316.528809,177.241760 318.051331,177.530029 
	C324.692932,178.787582 331.357971,180.328949 338.072906,180.694351 
	C347.818604,181.224701 357.614594,180.830307 367.651520,180.830307 
	C367.730988,182.311050 367.825226,183.274490 367.826630,184.238068 
	C367.831268,187.402023 367.977722,190.578949 367.745667,193.727005 
	C367.382935,198.646957 364.997925,200.943375 360.011078,200.953690 
	C353.355316,200.967468 346.695801,200.746979 340.043518,200.484406 
	C328.981903,200.047775 317.924774,199.497635 306.856842,198.994919 
	C306.856842,205.853485 306.856842,212.096756 306.856842,218.687927 
	C319.804779,219.448135 332.407318,220.633865 345.023163,220.797852 
	C356.613098,220.948486 368.217377,219.998550 379.815308,219.533508 
	C380.982910,221.295059 381.872711,223.346680 383.361664,224.772720 
	C396.423859,237.282806 407.328949,251.633286 416.168060,267.201080 
	C425.218170,283.140411 432.653381,299.955902 437.885742,317.750305 
	C445.246124,342.781555 446.367554,368.301514 446.000000,394.531342 
	C300.979095,395.000000 155.958206,395.000000 10.468657,395.000000 
	C10.677866,377.897430 10.332593,360.671692 12.371120,343.732880 
	C13.885762,331.147217 17.862423,318.722656 21.918112,306.620300 
	C25.229677,296.738434 30.133915,287.370544 34.590160,277.896179 
	C43.964008,257.966614 56.831364,240.507935 72.424759,224.996460 
	C73.886383,223.542511 74.795357,221.532990 76.374725,219.445755 
	C79.859497,219.764328 82.948967,221.056595 85.998428,220.968246 
	C104.444206,220.433777 122.882637,219.621490 141.316025,218.744156 
	C142.401901,218.692474 144.294266,217.307678 144.332932,216.474625 
	C144.599686,210.727036 144.473312,204.961227 144.473312,199.194977 
	C130.881180,199.725586 117.937973,200.230850 104.994766,200.736115 
	C105.867058,199.239441 106.367722,197.051117 107.668625,196.352112 
	C122.092575,188.601761 136.626923,181.055801 151.182129,173.552917 
	C152.283508,172.985199 153.771240,173.167023 155.565323,173.460754 
	C156.051254,189.175171 156.051254,204.429230 156.051254,219.633209 
	C183.353928,219.633209 210.046600,219.633209 236.626328,219.633209 
	C236.626328,212.835403 236.626328,206.408417 236.626328,199.456009 
	C218.439896,199.456009 200.549698,199.456009 182.508453,199.456009 
	C182.508453,192.320343 182.508453,185.722076 182.508453,178.491562 
	C196.733368,178.491562 210.766800,178.491562 225.381348,178.491562 
	C225.381348,171.572906 225.381348,165.281631 225.381348,158.990356 
M136.477890,299.735413 
	C139.248932,299.735413 142.019974,299.735413 145.192993,299.735413 
	C145.192993,309.095947 145.192993,317.852814 145.192993,326.691101 
	C200.957596,326.691101 256.293243,326.691101 312.066254,326.691101 
	C312.066254,317.532410 312.066254,308.777679 312.066254,299.578400 
	C321.255157,299.578400 330.013855,299.578400 338.797668,299.578400 
	C338.797668,288.865967 338.797668,278.619934 338.797668,268.336121 
	C336.089813,268.336121 333.690216,268.336121 330.809967,268.336121 
	C330.809967,276.028961 330.809967,283.446503 330.809967,290.921906 
	C324.261871,290.921906 318.208801,290.921906 311.727600,290.921906 
	C311.727600,285.490326 311.727600,280.397003 311.727600,275.163025 
	C308.843933,275.163025 306.397736,275.163025 303.313171,275.163025 
	C303.313171,280.551361 303.313171,285.768219 303.313171,290.962921 
	C253.104889,290.962921 203.535980,290.962921 153.516556,290.962921 
	C153.516556,285.570007 153.516556,280.468689 153.516556,275.332642 
	C150.509674,275.332642 147.961044,275.332642 144.976273,275.332642 
	C144.976273,280.766876 144.976273,285.853821 144.976273,290.902710 
	C138.473648,290.902710 132.427338,290.902710 125.919762,290.902710 
	C125.919762,283.132385 125.919762,275.717133 125.919762,268.363831 
	C123.038094,268.363831 120.636345,268.363831 118.240967,268.363831 
	C118.240967,278.909943 118.240967,289.138123 118.240967,299.735352 
	C124.206795,299.735352 129.844315,299.735352 136.477890,299.735413 
M182.687088,247.397049 
	C147.756729,247.403687 112.826370,247.409119 77.896034,247.439453 
	C77.632980,247.439682 77.351685,247.759506 77.115410,247.970932 
	C77.003189,248.071335 76.955750,248.262985 76.918060,248.422546 
	C76.880913,248.579834 76.893143,248.748779 76.832558,249.800446 
	C78.558167,249.950470 80.348068,250.240204 82.138229,250.241821 
	C114.242477,250.270660 146.346756,250.265335 178.451035,250.263611 
	C179.781235,250.263535 181.195480,250.486084 182.404572,250.093552 
	C182.971069,249.909622 183.141693,248.506317 182.687088,247.397049 
M302.500122,247.329376 
	C292.770325,247.329376 283.040527,247.329376 273.310730,247.329376 
	C273.181091,247.892349 273.051483,248.455322 272.921875,249.018280 
	C274.122192,249.433914 275.316589,250.187714 276.523834,250.209015 
	C283.185852,250.326447 289.851013,250.265396 296.515076,250.265091 
	C322.838165,250.263931 349.161316,250.277542 375.484314,250.224960 
	C377.093079,250.221741 378.700806,249.694000 380.309021,249.410309 
	C380.221954,248.716705 380.134888,248.023087 380.047821,247.329483 
	C354.531921,247.329483 329.016052,247.329483 302.500122,247.329376 
M264.676788,254.558014 
	C264.676788,249.036209 264.676788,243.514404 264.676788,237.992599 
	C263.127380,238.458206 262.340118,239.238922 262.272491,240.077652 
	C262.085602,242.395309 262.196747,244.737198 262.194580,247.069504 
	C262.187256,254.972198 260.990479,257.655457 257.182068,257.069885 
	C250.907654,256.105072 252.634659,250.767792 252.304810,246.758194 
	C252.063232,243.821609 252.257477,240.849182 252.257477,237.892731 
	C251.650253,237.825455 251.043030,237.758179 250.435806,237.690903 
	C250.080383,238.580154 249.432159,239.465515 249.420334,240.359299 
	C249.369675,244.185806 249.461990,248.016235 249.587585,251.842438 
	C249.714661,255.713028 251.357666,258.692841 255.298523,259.646790 
	C259.335663,260.624054 262.504089,259.259430 264.676788,254.558014 
M204.613312,251.670364 
	C204.264038,255.027145 203.050430,257.610779 199.047379,257.086273 
	C195.327332,256.598816 194.952194,253.721481 194.931274,250.737610 
	C194.907928,247.406418 195.037643,244.068436 194.850830,240.747467 
	C194.790970,239.683243 193.936172,238.663742 193.445084,237.623795 
	C193.018341,237.748718 192.591599,237.873642 192.164856,237.998581 
	C192.164856,243.244308 191.814026,248.522247 192.291412,253.724167 
	C192.596466,257.048096 195.024872,259.938934 198.585678,259.638824 
	C201.208664,259.417755 205.576843,257.797943 205.884354,256.178162 
	C206.994888,250.328354 206.720947,244.215057 206.903793,238.199249 
	C206.905563,238.141373 206.011032,238.056244 204.769012,237.867371 
	C204.769012,242.305145 204.769012,246.556091 204.613312,251.670364 
M241.191437,259.602203 
	C242.506149,259.290314 243.820877,258.978394 245.135590,258.666473 
	C245.060730,258.158661 244.985870,257.650818 244.910995,257.143005 
	C241.741013,257.143005 238.571030,257.143005 235.234894,257.143005 
	C235.234894,254.227661 235.234894,251.947876 235.234894,249.657379 
	C237.976593,249.283493 240.608643,248.924545 243.240707,248.565598 
	C243.183243,248.069199 243.125778,247.572784 243.068314,247.076370 
	C240.534454,247.076370 238.000580,247.076370 235.352966,247.076370 
	C235.352966,244.508209 235.352966,242.463242 235.352966,240.426544 
	C238.709747,240.153320 241.767624,239.904419 244.825516,239.655518 
	C244.786194,239.209137 244.746872,238.762772 244.707550,238.316406 
	C240.606781,238.316406 236.506027,238.316406 232.490860,238.316406 
	C232.490860,245.488953 232.490860,252.357468 232.490860,259.602539 
	C235.347305,259.602539 237.819183,259.602539 241.191437,259.602203 
M224.976059,249.744308 
	C228.027069,247.351089 229.032211,244.166656 226.873917,241.005905 
	C223.362045,235.862839 218.064514,238.468109 213.432709,237.970474 
	C212.274796,252.209900 212.794769,257.825714 215.902557,259.787323 
	C215.902557,256.729279 215.902557,254.033295 215.902557,251.496811 
	C219.087341,250.947876 221.662201,250.504059 224.976059,249.744308 
z"/>
<path fill="#FDFDFE" opacity="1.000000" stroke="none" 
	d="
M380.043091,219.288986 
	C368.217377,219.998550 356.613098,220.948486 345.023163,220.797852 
	C332.407318,220.633865 319.804779,219.448135 306.856842,218.687927 
	C306.856842,212.096756 306.856842,205.853485 306.856842,198.994919 
	C317.924774,199.497635 328.981903,200.047775 340.043518,200.484406 
	C346.695801,200.746979 353.355316,200.967468 360.011078,200.953690 
	C364.997925,200.943375 367.382935,198.646957 367.745667,193.727005 
	C367.977722,190.578949 367.831268,187.402023 367.826630,184.238068 
	C367.825226,183.274490 367.730988,182.311050 367.651520,180.830307 
	C357.614594,180.830307 347.818604,181.224701 338.072906,180.694351 
	C331.357971,180.328949 324.692932,178.787582 318.051331,177.530029 
	C316.528809,177.241760 315.194305,175.960220 313.429871,175.054810 
	C307.567902,168.534546 304.794006,161.319214 305.049164,152.595764 
	C305.319641,143.349487 304.622162,133.953003 311.143433,126.436615 
	C313.518616,123.698929 317.057556,121.715919 320.425598,120.176308 
	C323.059357,118.972359 326.245697,118.549713 329.192200,118.527313 
	C347.650970,118.386986 366.111298,118.456398 384.941589,118.456398 
	C384.941589,124.880600 384.941589,131.424927 384.941589,138.515396 
	C377.109619,138.515396 369.317963,138.511276 361.526306,138.516602 
	C354.365051,138.521484 347.203705,138.560028 340.042542,138.539139 
	C334.980988,138.524384 331.812683,140.917557 331.348236,145.972351 
	C330.565002,154.496521 332.590393,158.784378 341.010803,158.896393 
	C350.668335,159.024872 360.334015,158.813416 369.984619,159.116394 
	C380.708832,159.453079 390.246277,165.095139 391.600830,173.195587 
	C393.079163,182.036240 393.215393,191.183838 393.092865,200.186157 
	C392.973572,208.952164 388.358643,215.348770 380.043091,219.288986 
z"/>
<path fill="#FEFEFE" opacity="1.000000" stroke="none" 
	d="
M225.082031,158.652420 
	C225.381348,165.281631 225.381348,171.572906 225.381348,178.491562 
	C210.766800,178.491562 196.733368,178.491562 182.508453,178.491562 
	C182.508453,185.722076 182.508453,192.320343 182.508453,199.456009 
	C200.549698,199.456009 218.439896,199.456009 236.626328,199.456009 
	C236.626328,206.408417 236.626328,212.835403 236.626328,219.633209 
	C210.046600,219.633209 183.353928,219.633209 156.051254,219.633209 
	C156.051254,204.429230 156.051254,189.175171 155.965942,173.459091 
	C155.880615,154.888870 155.880615,136.780685 155.880615,118.370697 
	C183.124313,118.370697 209.812149,118.370697 236.717728,118.370697 
	C236.717728,124.938316 236.717728,131.373444 236.717728,138.404633 
	C218.627579,138.404633 200.576508,138.404633 182.270004,138.404633 
	C182.270004,145.094498 182.270004,151.200256 182.270004,158.314484 
	C196.351044,158.314484 210.566864,158.314484 225.082031,158.652420 
z"/>
<path fill="#FEFEFE" opacity="1.000000" stroke="none" 
	d="
M104.550415,200.832733 
	C117.937973,200.230850 130.881180,199.725586 144.473312,199.194977 
	C144.473312,204.961227 144.599686,210.727036 144.332932,216.474625 
	C144.294266,217.307678 142.401901,218.692474 141.316025,218.744156 
	C122.882637,219.621490 104.444206,220.433777 85.998428,220.968246 
	C82.948967,221.056595 79.859497,219.764328 76.392746,219.088501 
	C67.994133,215.713242 63.289688,208.356781 63.281521,199.081482 
	C63.264801,180.092224 62.755569,161.083969 63.447948,142.120026 
	C63.945141,128.502121 70.501175,121.634583 82.452217,119.074234 
	C84.720665,118.588242 87.070763,118.254234 89.384636,118.245728 
	C107.536491,118.179054 125.688698,118.208771 144.178558,118.208771 
	C144.178558,124.852272 144.178558,131.407242 144.178558,138.514801 
	C139.187317,138.514801 134.394577,138.481781 129.602448,138.521423 
	C118.448219,138.613708 107.294228,138.735291 96.140266,138.857162 
	C92.125023,138.901016 90.099091,141.192093 89.654678,144.954971 
	C89.343506,147.589600 89.203995,150.258194 89.194267,152.912384 
	C89.149078,165.242203 89.174164,177.572281 89.177490,189.902267 
	C89.180054,199.426361 90.735115,201.004013 100.109062,200.989914 
	C101.441422,200.987915 102.773735,200.950409 104.550415,200.832733 
z"/>
<path fill="#F5F5F8" opacity="1.000000" stroke="none" 
	d="
M292.980469,86.734665 
	C246.373962,86.734657 200.263535,86.734657 153.763458,86.734657 
	C153.763458,89.919952 153.763458,92.685242 153.763458,95.825714 
	C150.818726,95.825714 148.254959,95.825714 145.341431,95.825714 
	C145.341431,93.075623 145.341431,90.313156 145.341431,87.142097 
	C138.955246,87.142097 132.889114,87.142097 126.375420,87.142097 
	C126.375420,94.354462 126.375420,101.775429 126.375420,109.573570 
	C123.544121,109.573570 121.135841,109.573570 118.310448,109.573570 
	C118.310448,99.496284 118.310448,89.143280 118.310448,78.308540 
	C127.134491,78.308540 135.882553,78.308540 145.041931,78.308540 
	C145.041931,69.087288 145.041931,60.332615 145.041931,51.243820 
	C200.688492,51.243820 255.912201,51.243820 311.723083,51.243820 
	C311.723083,59.985390 311.723083,68.875954 311.723083,78.225533 
	C321.039856,78.225533 329.785004,78.225533 338.808441,78.225533 
	C338.808441,88.932411 338.808441,99.166389 338.808441,109.678848 
	C336.329285,109.678848 333.921722,109.678848 331.044464,109.678848 
	C331.044464,102.244278 331.044464,94.830032 331.044464,87.079453 
	C324.541443,87.079453 318.494629,87.079453 312.007172,87.079453 
	C312.007172,89.842102 312.007172,92.591217 312.007172,95.680450 
	C308.874847,95.680450 306.165161,95.680450 303.093872,95.680450 
	C303.093872,92.892456 303.093872,90.132149 303.093872,86.734665 
	C299.674133,86.734665 296.575317,86.734665 292.980469,86.734665 
M175.499969,78.270729 
	C218.062027,78.270729 260.624084,78.270729 303.085297,78.270729 
	C303.085297,71.492661 303.085297,65.440109 303.085297,59.367714 
	C253.155273,59.367714 203.597610,59.367714 153.839615,59.367714 
	C153.839615,65.701836 153.839615,71.760803 153.839615,78.270737 
	C160.918228,78.270737 167.709106,78.270737 175.499969,78.270729 
z"/>
<path fill="#FDFDFE" opacity="1.000000" stroke="none" 
	d="
M283.436066,166.535461 
	C283.525482,177.613937 283.525482,188.231781 283.525482,199.440247 
	C287.623779,199.440247 291.674866,199.440247 296.115173,199.440247 
	C296.115173,206.543808 296.115173,213.064072 296.115173,219.795929 
	C278.944336,219.795929 261.868378,219.795929 244.431427,219.795929 
	C244.431427,213.295837 244.431427,206.765320 244.431427,199.705048 
	C248.542313,199.705048 252.610306,199.705048 257.138397,199.705048 
	C257.138397,186.764069 257.138397,174.341156 257.040771,161.458405 
	C256.943176,153.874710 256.943176,146.750885 256.943176,139.189575 
	C252.859070,139.189575 248.779663,139.189575 244.386139,139.189575 
	C244.386139,132.052383 244.386139,125.346672 244.386139,118.351288 
	C261.657227,118.351288 278.842285,118.351288 296.273743,118.351288 
	C296.273743,124.933037 296.273743,131.364090 296.273743,138.333832 
	C292.120605,138.333832 288.047089,138.333832 283.346649,138.333832 
	C283.346649,147.928146 283.346649,157.001495 283.436066,166.535461 
z"/>
<path fill="#F5F5F8" opacity="1.000000" stroke="none" 
	d="
M135.979858,299.735382 
	C129.844315,299.735352 124.206795,299.735352 118.240967,299.735352 
	C118.240967,289.138123 118.240967,278.909943 118.240967,268.363831 
	C120.636345,268.363831 123.038094,268.363831 125.919762,268.363831 
	C125.919762,275.717133 125.919762,283.132385 125.919762,290.902710 
	C132.427338,290.902710 138.473648,290.902710 144.976273,290.902710 
	C144.976273,285.853821 144.976273,280.766876 144.976273,275.332642 
	C147.961044,275.332642 150.509674,275.332642 153.516556,275.332642 
	C153.516556,280.468689 153.516556,285.570007 153.516556,290.962921 
	C203.535980,290.962921 253.104889,290.962921 303.313171,290.962921 
	C303.313171,285.768219 303.313171,280.551361 303.313171,275.163025 
	C306.397736,275.163025 308.843933,275.163025 311.727600,275.163025 
	C311.727600,280.397003 311.727600,285.490326 311.727600,290.921906 
	C318.208801,290.921906 324.261871,290.921906 330.809967,290.921906 
	C330.809967,283.446503 330.809967,276.028961 330.809967,268.336121 
	C333.690216,268.336121 336.089813,268.336121 338.797668,268.336121 
	C338.797668,278.619934 338.797668,288.865967 338.797668,299.578400 
	C330.013855,299.578400 321.255157,299.578400 312.066254,299.578400 
	C312.066254,308.777679 312.066254,317.532410 312.066254,326.691101 
	C256.293243,326.691101 200.957596,326.691101 145.192993,326.691101 
	C145.192993,317.852814 145.192993,309.095947 145.192993,299.735413 
	C142.019974,299.735413 139.248932,299.735413 135.979858,299.735382 
M303.454407,302.502014 
	C303.632263,298.312042 300.422455,299.785919 298.500549,299.782928 
	C251.873398,299.710907 205.246078,299.726746 158.618805,299.726746 
	C157.022598,299.726746 155.426376,299.726746 153.953613,299.726746 
	C153.953613,306.497009 153.953613,312.548401 153.953613,318.653076 
	C203.929321,318.653076 253.488510,318.653076 303.461151,318.653076 
	C303.461151,313.437042 303.461151,308.471466 303.454407,302.502014 
z"/>
<path fill="#DBDCE6" opacity="1.000000" stroke="none" 
	d="
M183.089417,247.526337 
	C183.141693,248.506317 182.971069,249.909622 182.404572,250.093552 
	C181.195480,250.486084 179.781235,250.263535 178.451035,250.263611 
	C146.346756,250.265335 114.242477,250.270660 82.138229,250.241821 
	C80.348068,250.240204 78.558167,249.950470 76.832558,249.800446 
	C76.893143,248.748779 76.880913,248.579834 76.918060,248.422546 
	C76.955750,248.262985 77.003189,248.071335 77.115410,247.970932 
	C77.351685,247.759506 77.632980,247.439682 77.896034,247.439453 
	C112.826370,247.409119 147.756729,247.403687 183.089417,247.526337 
z"/>
<path fill="#DBDCE6" opacity="1.000000" stroke="none" 
	d="
M303.000122,247.329437 
	C329.016052,247.329483 354.531921,247.329483 380.047821,247.329483 
	C380.134888,248.023087 380.221954,248.716705 380.309021,249.410309 
	C378.700806,249.694000 377.093079,250.221741 375.484314,250.224960 
	C349.161316,250.277542 322.838165,250.263931 296.515076,250.265091 
	C289.851013,250.265396 283.185852,250.326447 276.523834,250.209015 
	C275.316589,250.187714 274.122192,249.433914 272.921875,249.018280 
	C273.051483,248.455322 273.181091,247.892349 273.310730,247.329376 
	C283.040527,247.329376 292.770325,247.329376 303.000122,247.329437 
z"/>
<path fill="#E1E2EB" opacity="1.000000" stroke="none" 
	d="
M264.471008,254.920227 
	C262.504089,259.259430 259.335663,260.624054 255.298523,259.646790 
	C251.357666,258.692841 249.714661,255.713028 249.587585,251.842438 
	C249.461990,248.016235 249.369675,244.185806 249.420334,240.359299 
	C249.432159,239.465515 250.080383,238.580154 250.435806,237.690903 
	C251.043030,237.758179 251.650253,237.825455 252.257477,237.892731 
	C252.257477,240.849182 252.063232,243.821609 252.304810,246.758194 
	C252.634659,250.767792 250.907654,256.105072 257.182068,257.069885 
	C260.990479,257.655457 262.187256,254.972198 262.194580,247.069504 
	C262.196747,244.737198 262.085602,242.395309 262.272491,240.077652 
	C262.340118,239.238922 263.127380,238.458206 264.676788,237.992599 
	C264.676788,243.514404 264.676788,249.036209 264.471008,254.920227 
z"/>
<path fill="#E1E2EB" opacity="1.000000" stroke="none" 
	d="
M204.691162,251.238708 
	C204.769012,246.556091 204.769012,242.305145 204.769012,237.867371 
	C206.011032,238.056244 206.905563,238.141373 206.903793,238.199249 
	C206.720947,244.215057 206.994888,250.328354 205.884354,256.178162 
	C205.576843,257.797943 201.208664,259.417755 198.585678,259.638824 
	C195.024872,259.938934 192.596466,257.048096 192.291412,253.724167 
	C191.814026,248.522247 192.164856,243.244308 192.164856,237.998581 
	C192.591599,237.873642 193.018341,237.748718 193.445084,237.623795 
	C193.936172,238.663742 194.790970,239.683243 194.850830,240.747467 
	C195.037643,244.068436 194.907928,247.406418 194.931274,250.737610 
	C194.952194,253.721481 195.327332,256.598816 199.047379,257.086273 
	C203.050430,257.610779 204.264038,255.027145 204.691162,251.238708 
z"/>
<path fill="#E9EAF0" opacity="1.000000" stroke="none" 
	d="
M240.741241,259.602356 
	C237.819183,259.602539 235.347305,259.602539 232.490860,259.602539 
	C232.490860,252.357468 232.490860,245.488953 232.490860,238.316406 
	C236.506027,238.316406 240.606781,238.316406 244.707550,238.316406 
	C244.746872,238.762772 244.786194,239.209137 244.825516,239.655518 
	C241.767624,239.904419 238.709747,240.153320 235.352966,240.426544 
	C235.352966,242.463242 235.352966,244.508209 235.352966,247.076370 
	C238.000580,247.076370 240.534454,247.076370 243.068314,247.076370 
	C243.125778,247.572784 243.183243,248.069199 243.240707,248.565598 
	C240.608643,248.924545 237.976593,249.283493 235.234894,249.657379 
	C235.234894,251.947876 235.234894,254.227661 235.234894,257.143005 
	C238.571030,257.143005 241.741013,257.143005 244.910995,257.143005 
	C244.985870,257.650818 245.060730,258.158661 245.135590,258.666473 
	C243.820877,258.978394 242.506149,259.290314 240.741241,259.602356 
z"/>
<path fill="#E9EAF0" opacity="1.000000" stroke="none" 
	d="
M224.606552,249.902283 
	C221.662201,250.504059 219.087341,250.947876 215.902557,251.496811 
	C215.902557,254.033295 215.902557,256.729279 215.902557,259.787323 
	C212.794769,257.825714 212.274796,252.209900 213.432709,237.970474 
	C218.064514,238.468109 223.362045,235.862839 226.873917,241.005905 
	C229.032211,244.166656 228.027069,247.351089 224.606552,249.902283 
M224.007294,241.490753 
	C221.563782,240.891388 219.120255,240.292023 216.262146,239.590973 
	C216.262146,243.052185 216.262146,245.623932 216.262146,248.170700 
	C223.689514,249.061478 225.256714,247.878479 224.007294,241.490753 
z"/>
<path fill="#242A69" opacity="1.000000" stroke="none" 
	d="
M174.999969,78.270737 
	C167.709106,78.270737 160.918228,78.270737 153.839615,78.270737 
	C153.839615,71.760803 153.839615,65.701836 153.839615,59.367714 
	C203.597610,59.367714 253.155273,59.367714 303.085297,59.367714 
	C303.085297,65.440109 303.085297,71.492661 303.085297,78.270729 
	C260.624084,78.270729 218.062027,78.270729 174.999969,78.270737 
z"/>
<path fill="#29306C" opacity="1.000000" stroke="none" 
	d="
M303.457764,303.003937 
	C303.461151,308.471466 303.461151,313.437042 303.461151,318.653076 
	C253.488510,318.653076 203.929321,318.653076 153.953613,318.653076 
	C153.953613,312.548401 153.953613,306.497009 153.953613,299.726746 
	C155.426376,299.726746 157.022598,299.726746 158.618805,299.726746 
	C205.246078,299.726746 251.873398,299.710907 298.500549,299.782928 
	C300.422455,299.785919 303.632263,298.312042 303.457764,303.003937 
z"/>
<path fill="#303671" opacity="1.000000" stroke="none" 
	d="
M224.288269,241.789093 
	C225.256714,247.878479 223.689514,249.061478 216.262146,248.170700 
	C216.262146,245.623932 216.262146,243.052185 216.262146,239.590973 
	C219.120255,240.292023 221.563782,240.891388 224.288269,241.789093 
z"/>
</svg>